<svg width="12" height="11" viewBox="0 0 12 11" fill="none" xmlns="http://www.w3.org/2000/svg">
<path d="M5.83432 10.5909C6.94265 10.5908 8.01957 10.2227 8.896 9.54423C9.77242 8.86579 10.3987 7.91549 10.6765 6.84255M5.83432 10.5909C4.72599 10.5908 3.64906 10.2227 2.77264 9.54423C1.89621 8.86579 1.26992 7.91549 0.9921 6.84255M5.83432 10.5909C7.21487 10.5909 8.33432 8.35199 8.33432 5.59088C8.33432 2.82977 7.21487 0.590882 5.83432 0.590882M5.83432 10.5909C4.45376 10.5909 3.33432 8.35199 3.33432 5.59088C3.33432 2.82977 4.45376 0.590882 5.83432 0.590882M10.6765 6.84255C10.7793 6.44255 10.8343 6.0231 10.8343 5.59088C10.8357 4.73094 10.6142 3.88532 10.1915 3.13644M10.6765 6.84255C9.19497 7.66387 7.52831 8.09354 5.83432 8.09088C4.07765 8.09088 2.4271 7.6381 0.9921 6.84255M0.9921 6.84255C0.886959 6.43364 0.833946 6.01309 0.834322 5.59088C0.834322 4.69922 1.06766 3.86144 1.4771 3.13644M5.83432 0.590882C6.72112 0.590512 7.59205 0.82608 8.35776 1.27342C9.12346 1.72075 9.75637 2.36375 10.1915 3.13644M5.83432 0.590882C4.94752 0.590512 4.07659 0.82608 3.31088 1.27342C2.54518 1.72075 1.91227 2.36375 1.4771 3.13644M10.1915 3.13644C8.98191 4.18418 7.43461 4.75985 5.83432 4.75755C4.16876 4.75755 2.64543 4.14644 1.4771 3.13644" stroke="white" stroke-width="0.5" stroke-linecap="round" stroke-linejoin="round"/>
</svg>
