<?xml version="1.0" standalone="no"?>
<!DOCTYPE svg PUBLIC "-//W3C//DTD SVG 20010904//EN"
 "http://www.w3.org/TR/2001/REC-SVG-20010904/DTD/svg10.dtd">
<svg version="1.0" xmlns="http://www.w3.org/2000/svg"
 width="328.000000pt" height="328.000000pt" viewBox="0 0 328.000000 328.000000"
 preserveAspectRatio="xMidYMid meet">

<g transform="translate(0.000000,328.000000) scale(0.100000,-0.100000)"
fill="#000000" stroke="none">
<path d="M1546 3173 c-4 -4 -63 -8 -132 -9 -81 -1 -129 -6 -139 -14 -10 -9
-15 -9 -15 -1 0 43 -275 -55 -450 -162 -154 -94 -357 -281 -452 -417 -214
-306 -325 -665 -303 -985 9 -139 32 -299 55 -387 22 -86 87 -245 128 -314 15
-27 31 -56 34 -64 14 -34 118 -175 193 -261 101 -116 222 -209 383 -298 156
-86 282 -138 381 -156 42 -8 110 -24 151 -35 101 -28 280 -36 417 -20 536 63
998 369 1247 826 66 121 147 353 170 489 20 119 33 355 18 355 -6 0 -8 15 -5
38 7 50 -14 154 -32 165 -11 6 -14 19 -10 50 3 23 2 36 -1 30 -9 -21 -30 -15
-42 12 -17 36 -15 41 8 20 19 -18 20 -17 20 3 0 12 -6 22 -14 22 -8 0 -14 10
-14 23 0 70 -14 125 -46 189 -94 189 -109 213 -115 195 -5 -14 -14 -5 -36 42
-17 34 -33 61 -37 61 -5 0 -8 6 -8 13 0 7 -7 22 -16 33 -15 18 -15 18 -10 -6
5 -25 5 -25 -21 5 -14 16 -32 30 -40 31 -8 2 -21 11 -28 21 -13 17 -14 17 -32
0 -15 -14 -15 -19 -4 -26 8 -6 9 -11 3 -15 -12 -7 -42 31 -42 53 0 12 -3 12
-12 3 -10 -10 -10 -15 2 -22 13 -8 12 -10 -2 -10 -17 0 -23 21 -19 57 1 6 -3
14 -9 18 -5 3 -10 14 -10 23 -1 30 -108 133 -158 152 -60 23 -70 46 -16 36
l39 -8 -35 32 c-49 44 -70 55 -70 35 0 -19 -14 -19 -30 0 -7 8 -19 15 -27 15
-7 0 -16 7 -19 15 -4 10 -17 14 -35 13 -34 -3 -34 -2 -13 -23 20 -19 13 -29
-14 -21 -11 4 -23 17 -26 29 -3 12 -15 28 -27 35 -20 13 -21 12 -16 -7 7 -30
-9 -35 -33 -11 -24 24 -49 28 -30 5 16 -19 1 -19 -24 0 -11 8 -30 15 -42 15
-13 0 -26 5 -29 10 -3 6 -16 10 -27 10 -11 0 -26 6 -32 14 -6 8 -22 17 -36 20
-14 3 -19 3 -12 0 6 -3 12 -10 12 -15 0 -6 -15 2 -34 16 -29 22 -38 24 -55 15
-13 -7 -28 -7 -38 -2 -10 5 -24 7 -31 5 -7 -3 -21 1 -30 9 -31 27 -107 42
-144 29 -22 -8 -34 -8 -36 -1 -4 11 -35 14 -46 3z m-41 -113 c-3 -5 -11 -10
-16 -10 -6 0 -7 5 -4 10 3 6 11 10 16 10 6 0 7 -4 4 -10z m-21 -35 c-4 -8 -12
-15 -20 -15 -17 0 -18 17 -1 23 22 9 27 7 21 -8z m-99 -15 c3 -5 1 -10 -4 -10
-6 0 -11 5 -11 10 0 6 2 10 4 10 3 0 8 -4 11 -10z m463 0 c7 0 10 -4 7 -10
-10 -16 -41 -12 -56 7 -13 15 -11 16 11 10 14 -4 31 -7 38 -7z m240 -90 c12
-24 17 -42 11 -46 -16 -10 -59 5 -59 21 0 9 6 12 18 9 13 -4 12 -2 -3 7 -29
18 -29 17 -15 34 18 22 24 19 48 -25z m-64 -45 c3 -8 1 -15 -3 -15 -5 0 -11 7
-15 15 -3 8 -1 15 3 15 5 0 11 -7 15 -15z m36 -25 c0 -5 -2 -10 -4 -10 -3 0
-8 5 -11 10 -3 6 -1 10 4 10 6 0 11 -4 11 -10z m80 -4 c0 -8 -4 -18 -10 -21
-5 -3 -10 3 -10 14 0 12 5 21 10 21 6 0 10 -6 10 -14z m30 -80 c0 -6 -5 -5
-12 2 -7 7 -20 12 -30 12 -23 0 -24 17 0 22 17 4 41 -18 42 -36z m185 34 c3
-5 2 -10 -4 -10 -5 0 -13 5 -16 10 -3 6 -2 10 4 10 5 0 13 -4 16 -10z m-156
-109 c-13 -4 -29 16 -29 38 0 9 8 5 21 -10 13 -15 16 -25 8 -28z m161 29 c0
-5 -6 -10 -12 -11 -7 -1 -2 -4 12 -9 22 -6 23 -8 7 -15 -19 -8 -47 10 -47 31
0 8 9 14 20 14 11 0 20 -4 20 -10z m-90 -10 c9 -6 10 -10 3 -10 -6 0 -13 -8
-15 -17 -3 -13 -6 -10 -10 10 -6 29 -2 32 22 17z m150 0 c0 -5 -2 -10 -4 -10
-3 0 -8 5 -11 10 -3 6 -1 10 4 10 6 0 11 -4 11 -10z m-272 -19 c3 -8 -1 -12
-9 -9 -7 2 -15 10 -17 17 -3 8 1 12 9 9 7 -2 15 -10 17 -17z m92 -11 c0 -5 -5
-10 -12 -10 -9 0 -9 -3 0 -12 10 -10 17 -10 32 0 26 16 29 15 23 -7 -6 -25
-32 -35 -50 -19 -12 10 -18 9 -29 -7 -24 -32 -27 -8 -4 29 21 35 40 47 40 26z
m601 -109 c5 -14 7 -31 4 -39 -6 -17 -30 -11 -31 9 -4 57 -3 55 -18 34 -13
-18 -14 -17 -21 13 -3 17 -4 36 0 42 3 5 1 10 -4 10 -6 0 -11 8 -11 18 0 20
65 -49 81 -87z m-1971 55 c0 -15 -24 -28 -34 -19 -7 7 13 33 25 33 5 0 9 -6 9
-14z m1860 -6 c0 -5 -9 -10 -20 -10 -11 0 -20 5 -20 10 0 6 9 10 20 10 11 0
20 -4 20 -10z m-460 -14 c0 -3 -4 -8 -10 -11 -5 -3 -10 -1 -10 4 0 6 5 11 10
11 6 0 10 -2 10 -4z m324 -22 c3 -8 2 -12 -4 -9 -6 3 -10 10 -10 16 0 14 7 11
14 -7z m-384 -14 c10 -19 9 -19 -15 -8 -19 8 -22 14 -13 20 17 10 16 11 28
-12z m571 -83 c-1 -12 -15 -9 -19 4 -3 6 1 10 8 8 6 -3 11 -8 11 -12z m92 -27
c13 -34 13 -40 1 -40 -8 0 -14 7 -14 16 0 8 -4 13 -9 9 -14 -8 -23 12 -16 35
10 30 20 24 38 -20z m108 -82 c13 -31 29 -37 29 -11 0 30 21 -1 26 -38 7 -50
9 -61 24 -91 10 -22 11 -30 0 -43 -10 -12 -10 -18 0 -30 9 -11 8 -19 -7 -39
-10 -14 -21 -26 -25 -26 -5 0 -8 -11 -8 -24 0 -33 -38 -32 -46 1 -6 23 3 46
15 39 4 -3 13 -1 21 5 10 6 11 9 3 9 -7 0 -13 8 -13 18 0 14 -4 12 -20 -8 -11
-14 -20 -30 -20 -37 0 -7 -7 -10 -16 -6 -9 3 -20 0 -24 -7 -4 -7 -13 -9 -20
-5 -8 5 -7 12 6 26 21 24 8 41 -24 33 -25 -7 -28 -25 -10 -54 10 -16 9 -23 -7
-40 -13 -15 -18 -33 -16 -57 4 -45 -20 -41 -25 5 -3 23 3 38 21 56 l24 24 -24
16 c-13 9 -28 16 -32 16 -4 0 0 -5 11 -11 15 -9 16 -13 5 -20 -22 -14 -29 -11
-39 17 -7 18 -15 24 -26 20 -11 -4 -18 1 -21 14 -4 16 -8 18 -19 9 -10 -9 -15
-8 -19 2 -8 23 0 88 13 101 7 7 12 19 12 28 1 12 4 11 15 -4 24 -32 29 -10 7
29 -22 37 -21 45 4 20 18 -18 34 -20 34 -4 0 8 5 7 15 -1 24 -20 28 -6 11 34
-13 32 -7 52 9 26 3 -5 12 -7 19 -4 7 3 22 -3 32 -13 17 -17 17 -17 12 3 -4
17 -2 20 13 17 14 -4 17 -14 15 -47 -2 -37 0 -41 21 -41 17 0 21 4 17 15 -15
35 -16 51 -5 64 9 11 7 21 -8 47 -11 18 -17 37 -14 42 6 10 36 -32 54 -75z
m-191 31 c0 -5 -4 -9 -10 -9 -5 0 -10 7 -10 16 0 8 5 12 10 9 6 -3 10 -10 10
-16z m30 0 c0 -6 -4 -7 -10 -4 -5 3 -10 11 -10 16 0 6 5 7 10 4 6 -3 10 -11
10 -16z m-740 1 c0 -5 -5 -10 -11 -10 -5 0 -7 5 -4 10 3 6 8 10 11 10 2 0 4
-4 4 -10z m920 0 c0 -5 -2 -10 -4 -10 -3 0 -8 5 -11 10 -3 6 -1 10 4 10 6 0
11 -4 11 -10z m-1021 -72 c-1 -7 1 -21 6 -31 12 -28 -5 -35 -24 -10 -14 16
-21 19 -30 10 -8 -8 -11 -7 -11 4 0 8 10 19 23 25 31 16 38 16 36 2z m91 2 c0
-5 -4 -10 -10 -10 -5 0 -10 5 -10 10 0 6 5 10 10 10 6 0 10 -4 10 -10z m596
-19 c-12 -19 -24 -12 -19 10 4 13 9 17 15 11 6 -6 7 -15 4 -21z m-2421 -20 c3
-5 1 -12 -5 -16 -5 -3 -10 1 -10 9 0 18 6 21 15 7z m960 -61 c3 -5 1 -10 -4
-10 -6 0 -11 5 -11 10 0 6 2 10 4 10 3 0 8 -4 11 -10z m157 -54 c13 -19 9 -56
-6 -56 -8 0 -16 -5 -18 -11 -4 -13 -39 1 -71 29 -17 15 -17 17 4 32 24 19 80
22 91 6z m1718 -76 c-9 -6 -10 -12 -1 -26 10 -19 10 -19 11 0 0 15 3 16 15 6
16 -13 21 -60 7 -60 -11 0 -37 30 -45 53 -8 22 2 49 15 41 6 -4 6 -9 -2 -14z
m-945 -31 c10 -15 -1 -23 -20 -15 -9 3 -13 10 -10 16 8 13 22 13 30 -1z m183
-27 c3 -9 -2 -13 -14 -10 -9 1 -19 9 -22 16 -3 9 2 13 14 10 9 -1 19 -9 22
-16z m687 -22 c3 -5 1 -10 -4 -10 -6 0 -11 5 -11 10 0 6 2 10 4 10 3 0 8 -4
11 -10z m-24 -57 c-12 -20 -14 -14 -5 12 4 9 9 14 11 11 3 -2 0 -13 -6 -23z
m-61 -31 c0 -16 5 -22 18 -20 11 2 16 -3 14 -14 -2 -11 2 -16 10 -13 9 4 17
-11 26 -47 6 -28 10 -54 7 -56 -3 -3 -5 2 -5 11 0 10 -4 17 -10 17 -14 0 -12
-16 5 -74 8 -26 11 -53 8 -60 -4 -6 -8 -19 -9 -28 -2 -29 -3 -29 -24 -18 -15
8 -18 15 -11 33 6 15 4 29 -5 42 -8 10 -14 39 -14 65 0 35 -8 58 -35 100 -19
30 -35 58 -35 62 0 15 18 17 24 3 11 -30 29 -16 22 18 -4 23 -3 28 4 17 5 -8
10 -25 10 -38z m127 26 c-3 -8 -6 -5 -6 6 -1 11 2 17 5 13 3 -3 4 -12 1 -19z
m-1267 -18 c0 -5 -4 -10 -10 -10 -5 0 -10 5 -10 10 0 6 5 10 10 10 6 0 10 -4
10 -10z m1210 -26 c0 -8 -4 -12 -10 -9 -5 3 -10 13 -10 21 0 8 5 12 10 9 6 -3
10 -13 10 -21z m170 16 c0 -5 -2 -10 -4 -10 -3 0 -8 5 -11 10 -3 6 -1 10 4 10
6 0 11 -4 11 -10z m-2897 -45 c-3 -9 -8 -14 -10 -11 -3 3 -2 9 2 15 9 16 15
13 8 -4z m1696 -56 c-20 -13 -49 -11 -49 3 0 6 7 20 17 30 16 17 17 17 31 -3
12 -18 13 -23 1 -30z m-109 11 c0 -5 -2 -10 -4 -10 -3 0 -8 5 -11 10 -3 6 -1
10 4 10 6 0 11 -4 11 -10z m220 -32 c0 -4 14 -5 31 -1 31 6 31 5 24 -26 -7
-31 -6 -32 22 -25 25 6 26 5 15 -8 -14 -18 -13 -36 5 -55 6 -7 9 -22 6 -34 -5
-16 -2 -20 13 -17 24 4 30 -25 9 -45 -19 -20 -19 -31 0 -23 13 4 14 2 5 -14
-12 -23 -26 -26 -33 -7 -2 6 -6 0 -9 -15 -7 -36 5 -35 40 0 34 35 62 47 62 27
0 -24 -4 -30 -16 -27 -6 1 -14 -4 -17 -12 -5 -13 -1 -13 33 -1 34 12 39 12 45
-3 5 -14 7 -14 15 -2 8 13 10 13 10 -1 0 -16 32 -33 58 -30 7 1 12 -9 12 -26
0 -21 -3 -24 -10 -13 -8 12 -11 12 -28 -3 -10 -9 -24 -17 -31 -17 -6 0 -15 -8
-18 -17 -4 -10 -16 -26 -28 -35 l-20 -17 22 -20 c13 -12 20 -28 17 -36 -5 -11
1 -15 23 -15 26 0 29 -4 39 -45 9 -39 8 -47 -5 -55 -9 -5 -12 -12 -7 -17 5 -4
11 -2 13 5 5 14 33 17 33 3 0 -5 -9 -11 -19 -14 -14 -3 -18 -11 -14 -26 3 -13
0 -23 -10 -27 -9 -3 -13 -13 -10 -25 3 -10 0 -26 -7 -33 -7 -10 -8 -21 -2 -33
5 -10 7 -24 5 -31 -3 -8 1 -10 11 -6 20 8 20 1 -1 -33 -12 -19 -25 -27 -39
-25 -15 2 -23 -3 -27 -17 -3 -13 -13 -21 -25 -21 -26 0 -34 -11 -21 -30 7 -13
9 -12 9 3 0 9 5 17 11 17 5 0 8 -4 4 -9 -3 -6 4 -15 16 -22 29 -15 78 -18 82
-5 3 6 8 8 12 3 10 -9 -28 -47 -47 -47 -7 0 -20 -5 -28 -10 -13 -9 -13 -11 0
-20 12 -8 10 -10 -10 -8 -17 2 -25 -3 -28 -17 -4 -17 -2 -18 12 -6 14 12 16
12 10 -3 -8 -22 -26 -16 -40 13 -7 13 -14 18 -18 12 -8 -12 -36 -3 -36 11 0 6
7 7 16 4 8 -3 12 -2 9 3 -3 5 -1 12 5 16 5 3 10 16 10 28 0 17 -2 19 -10 7
-10 -16 -11 -15 -29 15 -11 18 -12 16 -7 -14 l6 -35 -23 22 c-30 28 -55 27
-92 -3 -29 -24 -29 -25 -11 -42 13 -13 20 -15 23 -5 3 6 9 12 14 12 6 0 7 -5
4 -10 -3 -6 1 -10 10 -10 13 0 14 4 5 21 -12 22 -7 49 9 49 5 0 12 -14 16 -30
4 -17 11 -30 17 -30 6 0 7 -11 3 -27 -8 -35 -25 -54 -25 -29 0 9 -5 14 -10 11
-6 -4 -8 -10 -5 -15 8 -13 -15 -24 -27 -12 -6 6 -17 8 -24 5 -8 -3 -17 2 -20
11 -4 11 -13 14 -30 10 -15 -4 -24 -2 -24 5 0 6 8 11 18 12 10 0 12 3 5 6 -23
9 -14 25 10 18 17 -6 19 -5 11 5 -21 21 -54 2 -54 -31 0 -29 -14 -40 -23 -16
-3 8 -9 7 -19 -6 -8 -12 -20 -16 -31 -11 -14 5 -15 9 -6 20 14 17 5 18 -23 3
-12 -7 -23 -7 -27 -2 -9 14 -71 -5 -71 -21 0 -8 -15 -13 -41 -14 -22 -1 -45
-5 -50 -8 -15 -9 1 -25 19 -20 10 2 33 7 52 11 33 6 34 5 15 -10 -17 -14 -18
-17 -5 -25 22 -14 35 -6 33 19 -2 11 2 21 8 21 5 0 7 6 4 13 -4 6 0 4 8 -6 13
-16 18 -16 36 -6 17 11 23 10 40 -5 12 -11 21 -27 21 -36 0 -10 15 -25 34 -34
41 -19 56 -20 56 -3 0 9 2 9 9 -1 4 -8 11 -13 15 -13 30 4 35 -9 11 -32 -10
-11 -24 -13 -47 -8 -56 12 -73 8 -76 -16 -3 -17 -10 -23 -28 -23 -25 0 -33
-14 -11 -24 6 -3 2 -3 -10 0 -14 3 -23 1 -23 -7 0 -9 -3 -9 -15 1 -12 10 -12
15 1 36 9 13 13 31 10 41 -4 9 -1 20 6 24 7 4 9 11 6 15 -14 13 -39 -7 -55
-43 -9 -21 -18 -32 -20 -25 -3 6 -18 12 -34 12 -22 0 -27 3 -22 17 5 12 3 14
-7 8 -8 -5 -27 -10 -43 -12 -26 -3 -28 -1 -17 12 7 9 21 13 31 10 11 -4 19 -4
19 0 0 12 -40 48 -47 42 -3 -4 -1 -7 5 -7 20 0 14 -18 -8 -25 -11 -3 -23 -17
-26 -30 -3 -14 -15 -25 -27 -28 -20 -3 -19 -5 8 -17 17 -8 35 -14 40 -14 6 -1
18 -11 28 -24 10 -12 30 -22 43 -22 14 0 22 -4 19 -10 -3 -5 3 -15 14 -21 19
-12 18 -39 -1 -39 -6 0 -7 7 -4 16 5 12 2 15 -9 10 -9 -3 -13 -2 -10 4 8 13
-58 13 -71 0 -6 -6 -15 -5 -24 1 -11 8 -12 12 -2 16 18 7 4 23 -16 17 -9 -3
-24 -8 -32 -10 -13 -5 -13 -6 0 -15 13 -8 13 -11 -2 -19 -11 -7 -15 -17 -11
-27 5 -13 1 -12 -17 5 -26 24 -55 29 -66 10 -4 -6 -3 -8 4 -4 6 3 13 2 16 -3
14 -22 -18 -23 -36 -1 -10 12 -21 20 -24 17 -8 -7 14 -47 26 -47 6 0 19 -9 29
-19 16 -16 26 -18 51 -11 28 8 32 6 41 -17 8 -21 6 -29 -10 -44 -25 -24 -34
-24 -27 -1 4 10 -1 27 -9 38 -14 18 -14 18 -15 -8 0 -22 -5 -27 -27 -30 -22
-2 -29 -9 -30 -28 -1 -14 0 -19 3 -12 11 24 24 12 24 -23 0 -33 2 -35 34 -35
18 0 39 7 46 15 12 14 30 12 30 -4 0 -10 -89 -37 -107 -33 -6 1 -14 -2 -18 -8
-3 -5 -1 -10 6 -10 8 0 8 -4 -1 -15 -7 -8 -26 -15 -42 -15 -23 0 -29 -4 -24
-15 3 -8 1 -15 -4 -15 -6 0 -10 4 -10 9 0 4 -26 11 -57 14 -51 4 -86 17 -143
49 -8 5 -23 11 -32 14 -15 5 -15 8 -3 21 9 8 20 11 27 6 16 -10 78 -11 71 0
-2 4 0 7 6 7 5 0 11 -6 14 -12 4 -11 7 -11 18 0 7 6 23 12 36 12 13 0 23 5 23
11 0 5 4 8 10 4 14 -9 49 17 43 32 -3 7 2 16 11 19 17 7 22 49 6 59 -5 3 -7
12 -4 19 3 7 -3 19 -12 27 -16 13 -17 12 -12 -8 5 -20 4 -21 -14 -10 -16 9
-22 9 -25 0 -3 -8 -13 -4 -31 12 -29 27 -42 31 -42 14 0 -8 -5 -7 -15 1 -13
11 -14 10 -10 -2 4 -9 0 -18 -9 -21 -9 -4 -12 -14 -9 -26 6 -25 16 -26 33 -6
17 21 27 19 35 -6 6 -19 7 -20 20 -2 7 10 17 15 21 11 4 -4 2 -14 -4 -21 -7
-8 -9 -16 -6 -19 3 -3 -9 -8 -26 -10 -17 -3 -33 -1 -36 4 -9 14 -37 9 -31 -6
7 -18 -3 -28 -17 -17 -19 15 -57 20 -53 8 2 -7 8 -13 13 -13 30 -5 54 -18 54
-30 0 -18 -21 -18 -45 0 -17 12 -21 12 -36 -5 -11 -13 -23 -17 -35 -12 -17 6
-18 5 -4 -11 13 -17 12 -18 -5 -15 -14 3 -21 15 -25 39 -3 19 -13 47 -24 62
-10 16 -15 35 -12 44 5 13 1 15 -20 10 -21 -6 -25 -4 -22 11 2 10 13 19 26 21
19 3 22 9 21 45 -1 23 -3 34 -6 25 -2 -10 -11 -18 -19 -18 -17 0 -17 5 -1 30
10 17 9 22 -3 30 -12 9 -9 15 20 40 29 25 32 31 20 40 -12 8 -13 13 -2 30 6
11 12 28 11 37 0 15 -2 15 -7 3 -11 -26 -36 -54 -57 -67 -11 -6 -19 -16 -17
-23 1 -6 -2 -8 -8 -5 -13 8 -60 -32 -60 -52 0 -7 -7 -13 -15 -13 -12 0 -11 6
5 34 11 18 29 41 40 51 24 22 26 40 4 31 -10 -4 -14 -1 -12 6 3 7 13 15 24 16
18 4 74 50 74 61 0 9 -60 41 -76 41 -9 0 -13 10 -12 28 4 65 -2 101 -16 96 -8
-3 -17 0 -21 6 -5 8 1 11 16 9 13 -1 33 2 43 6 18 8 18 9 0 22 -24 18 -9 16
32 -3 28 -13 36 -14 47 -2 16 15 14 20 -26 108 -30 67 -46 130 -32 130 14 0
44 -41 39 -53 -2 -7 5 -18 16 -25 19 -12 20 -10 15 20 -4 28 -3 30 6 13 6 -11
19 -26 28 -33 13 -10 13 -14 3 -21 -12 -7 -12 -12 -1 -30 17 -26 27 -26 46 -3
10 12 16 14 19 5 3 -7 10 -13 15 -13 6 0 9 6 8 13 -4 30 2 48 14 44 6 -2 11
-11 9 -18 -2 -8 8 -3 23 11 21 19 28 22 34 11 11 -16 31 -6 31 16 0 12 3 13
14 3 12 -9 18 -7 32 9 14 16 21 18 32 9 21 -18 47 19 29 40 -9 12 -9 16 1 20
7 2 19 10 26 18 12 11 14 8 12 -19 -1 -21 3 -31 12 -30 15 4 16 -9 0 -25 -16
-16 -5 -15 37 2 23 10 35 22 35 34 0 15 6 20 25 18 14 0 25 -4 25 -8 0 -4 12
0 27 7 24 13 29 13 36 -1 5 -9 4 -20 -2 -28 -6 -7 -8 -16 -4 -19 3 -4 -1 -7
-9 -7 -9 0 -21 -6 -27 -14 -9 -11 -6 -16 19 -24 16 -6 30 -17 30 -24 0 -7 11
-1 23 13 13 14 31 28 40 32 9 3 17 10 17 15 0 5 13 9 30 9 16 0 38 7 48 16 32
29 47 13 16 -17 -8 -9 -12 -16 -7 -16 18 0 33 25 33 52 0 32 15 36 42 11 14
-13 21 -14 30 -5 17 17 33 15 18 -3 -22 -27 24 -18 54 10 15 14 31 25 37 25 5
0 9 7 9 15 0 8 3 14 8 13 11 -4 52 40 52 56 0 7 -9 16 -19 19 -14 3 -18 1 -14
-9 6 -17 -11 -18 -38 -3 -17 8 -23 7 -35 -8 -12 -16 -15 -16 -24 -3 -8 13 -10
13 -11 -2 -3 -35 -4 -39 -15 -46 -6 -4 -13 -15 -17 -24 -3 -10 -11 -18 -17
-18 -16 0 -12 31 7 52 19 21 12 32 -15 24 -26 -9 -36 -35 -20 -54 11 -13 10
-14 -2 -10 -8 2 -17 18 -20 34 -4 21 -11 29 -26 29 -12 0 -33 15 -48 33 -21
24 -24 32 -12 32 9 0 16 -5 16 -11 0 -6 7 -3 15 5 9 9 21 19 28 23 7 5 23 21
37 37 19 22 21 28 8 23 -10 -4 -18 -2 -18 3 0 6 6 11 13 11 45 5 67 4 67 -3 0
-4 -4 -8 -9 -8 -5 0 -8 -8 -7 -17 0 -10 -6 -18 -14 -19 -8 0 -19 -2 -23 -2 -8
-2 4 -19 38 -53 20 -20 20 -20 29 1 5 11 17 20 28 20 10 0 18 5 18 10 0 6 -15
9 -35 7 l-34 -4 13 31 c12 28 11 35 -5 55 -14 18 -22 20 -37 12 -11 -6 -29 -8
-41 -6 -13 2 -29 -4 -41 -17 -34 -37 -45 -8 -16 43 l25 44 -20 21 c-17 19 -18
22 -4 34 16 13 20 31 8 29 -19 -3 -33 2 -33 12 0 5 4 8 9 5 5 -4 12 7 16 24 4
16 10 30 15 30 5 0 11 13 15 30 5 22 1 35 -14 51 -21 23 -18 51 5 42 10 -4 17
2 21 16 6 24 23 29 23 6 0 -8 9 -15 20 -15 11 0 20 6 20 13 0 7 9 13 20 13 11
0 20 -6 20 -14 0 -7 4 -11 9 -8 4 3 7 24 5 46 -3 39 -2 41 19 34 20 -6 21 -5
7 11 -14 17 -14 17 8 4 12 -8 22 -17 22 -21z m100 7 c0 -8 -4 -15 -10 -15 -5
0 -10 7 -10 15 0 8 5 15 10 15 6 0 10 -7 10 -15z m40 -5 c0 -5 -4 -10 -10 -10
-5 0 -10 5 -10 10 0 6 5 10 10 10 6 0 10 -4 10 -10z m-685 -121 c0 -19 -39
-18 -43 2 -2 11 4 15 20 14 13 -1 23 -8 23 -16z m115 1 c0 -21 -24 -28 -35
-10 -8 14 3 30 21 30 8 0 14 -9 14 -20z m-1320 1 c0 -6 -4 -13 -10 -16 -5 -3
-10 1 -10 9 0 9 5 16 10 16 6 0 10 -4 10 -9z m1950 -12 c0 -5 -4 -9 -10 -9 -5
0 -10 7 -10 16 0 8 5 12 10 9 6 -3 10 -10 10 -16z m947 -11 c-3 -8 -6 -5 -6 6
-1 11 2 17 5 13 3 -3 4 -12 1 -19z m-1667 3 c0 -5 -7 -14 -15 -21 -16 -14 -18
-10 -9 14 6 17 24 22 24 7z m126 -35 c7 -8 18 -16 24 -18 11 -3 3 -38 -9 -38
-15 1 -30 17 -36 43 -8 30 -1 34 21 13z m-41 -26 c3 -5 1 -10 -4 -10 -6 0 -11
5 -11 10 0 6 2 10 4 10 3 0 8 -4 11 -10z m182 -12 c-3 -8 -6 -5 -6 6 -1 11 2
17 5 13 3 -3 4 -12 1 -19z m1148 12 c3 -5 1 -10 -4 -10 -6 0 -11 5 -11 10 0 6
2 10 4 10 3 0 8 -4 11 -10z m-640 -50 c3 -5 1 -10 -4 -10 -6 0 -11 5 -11 10 0
6 2 10 4 10 3 0 8 -4 11 -10z m-535 -41 c-6 -11 -15 -17 -20 -14 -6 4 -5 14 2
25 16 24 31 15 18 -11z m-214 -26 c-11 -11 -19 6 -11 24 8 17 8 17 12 0 3 -10
2 -21 -1 -24z m242 10 c-1 -10 1 -23 5 -30 5 -8 1 -11 -13 -10 -24 2 -23 -1
-8 32 13 29 21 33 16 8z m-1268 -29 c0 -21 -17 -17 -23 5 -3 14 -1 18 9 14 8
-3 14 -11 14 -19z m1210 22 c0 -3 -4 -8 -10 -11 -5 -3 -10 -1 -10 4 0 6 5 11
10 11 6 0 10 -2 10 -4z m885 -6 c3 -5 -1 -10 -10 -10 -9 0 -13 5 -10 10 3 6 8
10 10 10 2 0 7 -4 10 -10z m-16 -17 c31 -18 40 -33 21 -33 -5 0 -10 5 -10 11
0 7 -12 10 -30 7 -24 -4 -30 -1 -30 14 0 23 10 23 49 1z m-1004 -23 c3 -5 1
-10 -4 -10 -6 0 -11 5 -11 10 0 6 2 10 4 10 3 0 8 -4 11 -10z m238 -15 c-7
-21 -13 -19 -13 6 0 11 4 18 10 14 5 -3 7 -12 3 -20z m-1627 4 c3 -6 18 -9 33
-6 21 4 30 0 40 -16 14 -22 13 -22 -7 -4 -12 11 -22 14 -26 8 -4 -5 -2 -12 2
-15 5 -3 8 -16 7 -28 -1 -13 -3 -29 -4 -35 -2 -24 -31 -13 -51 19 -21 35 -18
50 8 42 11 -3 10 0 -5 12 -24 17 -30 34 -14 34 6 0 13 -5 17 -11z m2336 -21
c-7 -7 -12 -8 -12 -2 0 14 12 26 19 19 2 -3 -1 -11 -7 -17z m-902 -14 c0 -8
-5 -12 -10 -9 -6 4 -8 11 -5 16 9 14 15 11 15 -7z m82 -32 c-7 -2 -10 -8 -6
-13 3 -5 0 -9 -5 -9 -13 0 -13 3 -5 24 3 9 11 13 17 9 8 -5 7 -8 -1 -11z
m-170 -14 c-7 -7 -12 -8 -12 -2 0 6 3 14 7 17 3 4 9 5 12 2 2 -3 -1 -11 -7
-17z m235 -12 c-5 -14 -49 -15 -54 -1 -1 6 11 10 27 11 19 1 29 -3 27 -10z
m753 4 c0 -5 -5 -10 -11 -10 -5 0 -7 5 -4 10 3 6 8 10 11 10 2 0 4 -4 4 -10z
m-917 -30 c-3 -11 -7 -20 -9 -20 -2 0 -4 9 -4 20 0 11 4 20 9 20 5 0 7 -9 4
-20z m977 -21 c0 -5 -4 -9 -10 -9 -5 0 -10 7 -10 16 0 8 5 12 10 9 6 -3 10
-10 10 -16z m-1055 -9 c-10 -11 -20 -18 -23 -15 -7 6 18 35 31 35 5 0 2 -9 -8
-20z m55 11 c0 -6 -4 -13 -10 -16 -5 -3 -10 1 -10 9 0 9 5 16 10 16 6 0 10 -4
10 -9z m210 -1 c0 -5 -4 -10 -10 -10 -5 0 -10 5 -10 10 0 6 5 10 10 10 6 0 10
-4 10 -10z m-1400 -12 c0 -7 3 -24 6 -38 5 -17 3 -22 -3 -15 -15 15 -25 65
-13 65 5 0 10 -6 10 -12z m1325 -7 c-4 -13 1 -24 17 -35 18 -13 20 -18 9 -25
-9 -6 -10 -11 -2 -15 6 -4 16 -4 22 0 18 11 -6 -29 -37 -59 -39 -39 -63 -35
-27 5 27 30 27 58 0 58 -14 0 -28 11 -39 31 -24 41 -23 52 3 38 17 -9 25 -8
37 5 21 21 25 20 17 -3z m-265 -5 c0 -17 -14 -29 -23 -20 -8 8 3 34 14 34 5 0
9 -6 9 -14z m1148 -5 c2 -6 1 -23 -2 -37 -5 -19 -11 -24 -25 -19 -12 3 -21 0
-25 -10 -3 -9 -10 -13 -16 -10 -15 10 -12 35 5 35 18 0 19 12 4 27 -6 6 -9 15
-6 20 8 13 60 8 65 -6z m-1017 -1 c15 0 10 -27 -7 -34 -24 -9 -31 -7 -38 10
-8 21 3 37 21 30 8 -3 19 -6 24 -6z m759 -10 c0 -5 -4 -10 -10 -10 -5 0 -10 5
-10 10 0 6 5 10 10 10 6 0 10 -4 10 -10z m-813 -44 c-4 -9 -11 -16 -18 -16 -6
0 -8 7 -5 16 3 9 6 21 6 27 0 8 3 8 11 0 7 -7 9 -19 6 -27z m-44 12 c-6 -7
-15 -26 -20 -43 l-10 -30 -12 23 c-11 20 -9 25 11 42 26 22 46 27 31 8z
m-1023 -8 c0 -5 -2 -10 -4 -10 -3 0 -8 5 -11 10 -3 6 -1 10 4 10 6 0 11 -4 11
-10z m1950 1 c0 -12 -20 -25 -27 -18 -7 7 6 27 18 27 5 0 9 -4 9 -9z m220 -10
c0 -21 -13 -41 -26 -41 -17 0 -17 5 -4 31 11 20 30 26 30 10z m-950 -22 c0
-14 -27 -10 -33 5 -4 10 0 12 14 9 10 -3 19 -9 19 -14z m-1224 -16 c16 -21 18
-43 4 -43 -5 0 -10 9 -10 20 0 17 -3 19 -19 11 -23 -13 -34 -4 -18 15 16 18
27 17 43 -3z m1044 -7 c0 -17 -39 -66 -40 -49 0 6 4 14 9 17 5 3 7 15 4 26 -4
14 0 20 11 20 9 0 16 -6 16 -14z m490 -21 c0 -14 -4 -25 -10 -25 -5 0 -9 11
-8 25 1 14 6 25 10 25 4 0 8 -11 8 -25z m662 -5 c-2 -16 -8 -27 -13 -24 -5 3
-12 -2 -15 -10 -3 -9 -13 -16 -21 -16 -19 0 -14 -63 6 -71 9 -3 10 -8 5 -12
-6 -3 -15 -2 -22 2 -14 9 -24 69 -14 85 3 6 8 22 10 36 4 32 11 38 22 20 8
-12 10 -12 16 3 11 29 31 20 26 -13z m-1032 1 c0 -5 -7 -14 -15 -21 -12 -10
-15 -10 -15 0 0 7 -7 10 -15 7 -8 -4 -17 -2 -20 3 -3 5 7 11 22 13 16 2 31 5
36 6 4 0 7 -3 7 -8z m220 -31 c0 -5 -7 -10 -15 -10 -8 0 -15 5 -15 10 0 6 7
10 15 10 8 0 15 -4 15 -10z m1121 -58 c-13 -25 -41 -48 -41 -34 0 6 5 14 11
17 6 4 8 14 5 22 -4 9 -1 22 6 30 10 12 13 12 20 -1 5 -9 5 -23 -1 -34z m-401
-2 c0 -5 -4 -10 -10 -10 -5 0 -10 5 -10 10 0 6 5 10 10 10 6 0 10 -4 10 -10z
m-7 -57 c6 -34 7 -34 -21 -26 -17 4 -20 8 -11 19 6 7 8 18 4 24 -3 5 0 10 8
10 8 0 17 -12 20 -27z m-1553 7 c0 -5 -4 -10 -10 -10 -5 0 -10 5 -10 10 0 6 5
10 10 10 6 0 10 -4 10 -10z m150 -15 c0 -8 -4 -15 -10 -15 -5 0 -10 7 -10 15
0 8 5 15 10 15 6 0 10 -7 10 -15z m-170 -84 c0 -12 -6 -9 -20 9 -26 33 -26 48
0 25 11 -10 20 -25 20 -34z m40 11 c0 -13 -12 -22 -22 -16 -10 6 -1 24 13 24
5 0 9 -4 9 -8z m-77 -8 c7 -8 -17 -34 -32 -34 -14 0 -14 8 2 25 13 16 21 18
30 9z m1502 -4 c3 -5 1 -10 -6 -10 -6 0 -18 -8 -25 -17 -17 -25 -28 -10 -12
16 14 22 33 27 43 11z m-1400 -10 c3 -5 -1 -10 -9 -10 -9 0 -16 5 -16 10 0 6
4 10 9 10 6 0 13 -4 16 -10z m-325 -30 c0 -5 -2 -10 -4 -10 -3 0 -8 5 -11 10
-3 6 -1 10 4 10 6 0 11 -4 11 -10z m120 -30 c0 -5 -4 -10 -10 -10 -5 0 -10 5
-10 10 0 6 5 10 10 10 6 0 10 -4 10 -10z m1910 -14 c0 -8 -7 -16 -15 -20 -12
-4 -13 -2 -2 14 14 24 17 25 17 6z m-385 -6 c3 -5 1 -10 -4 -10 -6 0 -11 5
-11 10 0 6 2 10 4 10 3 0 8 -4 11 -10z m-1595 -4 c0 -3 -4 -8 -10 -11 -5 -3
-10 -1 -10 4 0 6 5 11 10 11 6 0 10 -2 10 -4z m1708 -4 c9 -6 5 -12 -13 -22
-27 -14 -34 -50 -11 -50 8 0 18 5 21 10 7 12 25 13 25 3 0 -5 -12 -13 -26 -20
-39 -18 -56 3 -43 51 10 36 22 43 47 28z m-1558 -12 c0 -5 -4 -10 -10 -10 -5
0 -10 5 -10 10 0 6 5 10 10 10 6 0 10 -4 10 -10z m1390 -10 c-8 -5 -19 -10
-25 -10 -5 0 -3 5 5 10 8 5 20 10 25 10 6 0 3 -5 -5 -10z m239 -29 l-24 -19
20 -23 c14 -15 16 -23 8 -26 -7 -3 -13 -9 -13 -14 0 -21 21 4 37 43 10 25 19
36 25 30 6 -6 6 -18 -2 -32 -9 -17 -9 -24 -1 -30 7 -4 11 -11 10 -16 -4 -20 2
-24 21 -14 14 8 20 8 20 0 0 -6 -8 -13 -17 -17 -29 -10 -55 -41 -41 -49 6 -4
22 5 35 21 13 15 26 25 30 22 3 -3 -4 -16 -16 -28 -12 -13 -21 -26 -21 -31 0
-4 -13 -14 -29 -22 -16 -9 -31 -23 -33 -33 -3 -12 -22 -23 -56 -32 -29 -7 -54
-17 -58 -22 -3 -5 -22 -9 -43 -9 -20 0 -42 -5 -49 -12 -9 -9 -12 -9 -12 0 0 7
-4 12 -10 12 -5 0 -10 -7 -10 -15 0 -8 -8 -15 -17 -14 -11 0 -13 3 -5 6 6 2
10 9 7 13 -3 5 13 21 35 36 44 30 51 61 12 56 -22 -3 -22 -3 3 22 21 21 30 24
45 16 16 -9 20 -7 26 14 3 14 12 27 20 30 8 3 14 19 14 35 0 16 3 36 6 45 7
19 40 21 47 4 2 -7 8 -9 13 -5 4 4 3 17 -4 28 -16 25 -1 49 30 49 19 0 19 -1
-3 -19z m-1714 -31 c-3 -5 -11 -10 -16 -10 -6 0 -7 5 -4 10 3 6 11 10 16 10 6
0 7 -4 4 -10z m1481 -29 c-9 -10 -16 -22 -16 -28 0 -6 -10 -13 -23 -15 -35 -7
-33 27 3 42 16 7 32 19 35 28 6 13 9 14 12 4 3 -7 -2 -21 -11 -31z m-51 9 c3
-5 1 -10 -4 -10 -6 0 -11 5 -11 10 0 6 2 10 4 10 3 0 8 -4 11 -10z m145 7 c0
-2 -10 -12 -21 -23 -22 -19 -22 -19 -10 4 10 18 31 31 31 19z m-410 -37 c0
-21 -15 -27 -25 -10 -7 12 2 30 16 30 5 0 9 -9 9 -20z m-60 6 c0 -3 -4 -8 -10
-11 -5 -3 -10 -1 -10 4 0 6 5 11 10 11 6 0 10 -2 10 -4z m130 -6 c0 -5 -4 -10
-10 -10 -5 0 -10 5 -10 10 0 6 5 10 10 10 6 0 10 -4 10 -10z m340 -30 c0 -5
-7 -10 -16 -10 -8 0 -12 5 -9 10 3 6 10 10 16 10 5 0 9 -4 9 -10z m-95 -10 c3
-5 1 -10 -4 -10 -6 0 -11 5 -11 10 0 6 2 10 4 10 3 0 8 -4 11 -10z m-1375 -20
c0 -5 -5 -10 -11 -10 -5 0 -7 5 -4 10 3 6 8 10 11 10 2 0 4 -4 4 -10z m1299
-31 c-15 -9 -32 -2 -24 11 3 5 13 6 21 3 12 -4 13 -8 3 -14z m-114 2 c16 -7
12 -10 -25 -18 -44 -9 -70 -3 -70 18 0 11 68 11 95 0z m-330 -31 c3 -5 1 -10
-4 -10 -6 0 -11 5 -11 10 0 6 2 10 4 10 3 0 8 -4 11 -10z m885 -4 c0 -2 -7 -7
-16 -10 -8 -3 -12 -2 -9 4 6 10 25 14 25 6z m-593 -12 c-3 -3 -12 -4 -19 -1
-8 3 -5 6 6 6 11 1 17 -2 13 -5z m38 -34 c3 -11 12 -20 18 -20 18 0 36 -45 25
-64 -7 -13 -4 -16 14 -16 17 0 19 -3 10 -12 -10 -10 -17 -10 -32 0 -17 11 -20
10 -17 -8 2 -11 7 -23 11 -27 13 -13 -97 -33 -112 -20 -10 8 -19 8 -32 -1 -12
-7 -21 -8 -25 -2 -3 6 -1 10 4 10 6 0 11 4 11 10 0 6 -9 6 -25 0 -18 -7 -25
-6 -25 2 0 6 -3 8 -7 5 -7 -8 -33 11 -33 24 0 5 5 9 11 9 5 0 7 -4 4 -10 -3
-5 -2 -10 4 -10 5 0 12 4 16 9 6 10 -49 41 -73 41 -11 0 -12 3 -3 14 6 8 32
14 61 15 44 1 50 -2 56 -23 4 -15 19 -29 44 -38 36 -15 37 -15 33 6 -4 19 -3
20 9 4 9 -10 19 -13 27 -9 18 11 -3 51 -26 51 -12 0 -14 3 -6 11 18 18 52 2
46 -21 -5 -21 4 -25 31 -14 20 8 21 34 1 34 -8 0 -15 7 -15 16 0 13 -8 15 -34
12 -30 -3 -33 -2 -25 13 8 16 23 26 41 28 4 1 10 -8 13 -19z m-391 -6 c4 -10
1 -14 -6 -12 -15 5 -23 28 -10 28 5 0 13 -7 16 -16z m326 6 c0 -5 -7 -10 -15
-10 -8 0 -15 5 -15 10 0 6 7 10 15 10 8 0 15 -4 15 -10z m-33 -57 c-17 -18
-22 -8 -11 22 5 12 10 13 17 6 8 -8 6 -16 -6 -28z m-1332 17 c3 -5 1 -10 -4
-10 -6 0 -11 5 -11 10 0 6 2 10 4 10 3 0 8 -4 11 -10z m1561 -5 c-22 -17 -56
-20 -56 -6 0 10 23 18 55 20 20 0 20 0 1 -14z m-1236 -9 c0 -3 -4 -8 -10 -11
-5 -3 -10 -1 -10 4 0 6 5 11 10 11 6 0 10 -2 10 -4z m750 -37 c0 -6 -4 -7 -10
-4 -5 3 -10 11 -10 16 0 6 5 7 10 4 6 -3 10 -11 10 -16z m-820 -4 c10 -12 10
-15 -4 -15 -9 0 -16 7 -16 15 0 8 2 15 4 15 2 0 9 -7 16 -15z m1310 5 c0 -5
-5 -10 -11 -10 -5 0 -7 5 -4 10 3 6 8 10 11 10 2 0 4 -4 4 -10z m-360 -14 c0
-2 -7 -6 -15 -10 -8 -3 -15 -1 -15 4 0 6 7 10 15 10 8 0 15 -2 15 -4z m-316
-21 c3 -8 15 -15 26 -15 11 0 20 7 20 15 0 8 9 15 20 15 18 0 25 -11 21 -34
-1 -4 6 -14 16 -21 17 -13 17 -14 -2 -20 -11 -4 -28 -11 -37 -16 -10 -5 -28
-9 -41 -9 -20 0 -23 4 -19 30 3 19 0 30 -7 30 -7 0 -9 5 -6 10 3 6 1 10 -4 10
-6 0 -11 5 -11 10 0 15 17 12 24 -5z m-594 -30 c0 -5 -5 -3 -10 5 -5 8 -10 20
-10 25 0 6 5 3 10 -5 5 -8 10 -19 10 -25z m520 9 c0 -8 -4 -12 -10 -9 -5 3
-10 10 -10 16 0 5 5 9 10 9 6 0 10 -7 10 -16z m228 -1 c2 -8 -5 -13 -17 -13
-12 0 -21 6 -21 16 0 18 31 15 38 -3z m45 -13 c4 -15 0 -20 -13 -20 -13 0 -17
5 -13 20 3 11 9 20 13 20 4 0 10 -9 13 -20z m-978 -40 c-4 -6 -1 -10 6 -10 7
0 10 -3 6 -6 -7 -8 -67 34 -67 47 0 5 14 2 30 -6 17 -9 28 -20 25 -25z m1031
29 c3 -6 15 -9 25 -6 12 3 17 1 13 -5 -5 -7 2 -9 20 -4 15 4 26 2 26 -4 0 -5
-10 -10 -23 -10 -28 0 -47 -17 -47 -42 0 -11 -7 -18 -20 -18 -12 0 -20 7 -20
16 0 10 6 14 14 11 9 -4 14 2 14 18 0 13 -7 26 -14 29 -16 6 -19 26 -5 26 6 0
13 -5 17 -11z m193 -13 c-2 -2 -15 -9 -29 -15 -24 -11 -24 -11 -6 3 16 13 49
24 35 12z m-639 -35 c0 -17 -5 -33 -11 -37 -8 -4 -9 1 -4 16 6 19 4 21 -14 15
-24 -7 -27 -1 -8 20 20 24 37 17 37 -14z m335 19 c3 -5 -3 -10 -15 -10 -12 0
-18 5 -15 10 3 6 10 10 15 10 5 0 12 -4 15 -10z m235 -7 c-8 -4 -20 -13 -26
-21 -7 -10 -18 -12 -34 -7 -23 7 -23 8 10 20 36 13 81 20 50 8z m-620 -64 c-6
-10 -17 -19 -26 -19 -8 0 -17 -7 -20 -15 -9 -22 -17 -18 -31 12 -14 30 -17 55
-4 35 6 -11 14 -11 42 1 41 17 53 13 39 -14z m250 -9 c0 -5 -5 -10 -11 -10 -5
0 -7 5 -4 10 3 6 8 10 11 10 2 0 4 -4 4 -10z m165 -70 c-3 -5 -11 -10 -16 -10
-6 0 -7 5 -4 10 3 6 11 10 16 10 6 0 7 -4 4 -10z m-190 -39 c-3 -6 -21 -11
-39 -11 -17 0 -37 -5 -44 -12 -7 -7 -12 -9 -12 -4 0 16 31 37 47 32 10 -3 25
-1 33 4 17 10 25 6 15 -9z m195 10 c0 -10 -50 -25 -58 -17 -3 3 6 10 19 15 31
13 39 13 39 2z m-317 -58 c-7 -2 -19 -2 -25 0 -7 3 -2 5 12 5 14 0 19 -2 13
-5z"/>
<path d="M2880 2320 c0 -5 5 -10 11 -10 5 0 7 5 4 10 -3 6 -8 10 -11 10 -2 0
-4 -4 -4 -10z"/>
<path d="M2980 2309 c0 -12 -8 -28 -17 -35 -15 -10 -16 -15 -5 -25 10 -11 12
-10 12 0 0 10 3 11 14 2 12 -10 14 -5 14 33 0 26 -4 46 -9 46 -5 0 -9 -10 -9
-21z"/>
<path d="M2790 2284 c0 -8 5 -12 10 -9 6 4 8 11 5 16 -9 14 -15 11 -15 -7z"/>
<path d="M2860 2264 c0 -14 4 -23 10 -19 6 3 10 15 10 26 0 10 -4 19 -10 19
-5 0 -10 -12 -10 -26z"/>
<path d="M2920 2260 c0 -5 5 -10 10 -10 6 0 10 5 10 10 0 6 -4 10 -10 10 -5 0
-10 -4 -10 -10z"/>
<path d="M2945 2213 c-9 -26 -6 -36 8 -24 8 6 16 9 18 6 3 -2 5 4 5 14 0 21
-23 24 -31 4z"/>
<path d="M2811 2171 c-7 -5 -10 -14 -6 -20 5 -9 10 -9 21 0 26 22 14 38 -15
20z"/>
<path d="M2990 2085 c0 -8 2 -15 4 -15 2 0 6 7 10 15 3 8 1 15 -4 15 -6 0 -10
-7 -10 -15z"/>
<path d="M1907 1724 c-10 -10 -8 -46 2 -63 7 -11 14 -9 35 14 14 15 24 30 21
33 -3 3 -13 -5 -24 -16 -24 -28 -35 -28 -20 -1 11 21 0 47 -14 33z"/>
<path d="M2112 1653 c2 -10 10 -17 17 -15 7 1 19 -5 27 -15 7 -10 14 -13 14
-7 0 12 -42 54 -54 54 -4 0 -6 -8 -4 -17z"/>
<path d="M2033 1643 c6 -25 -3 -29 -21 -11 -9 9 -13 7 -18 -8 -4 -10 -11 -21
-14 -24 -4 -3 -10 -14 -14 -26 -5 -16 0 -23 20 -33 19 -8 30 -9 38 -1 7 7 3
10 -13 10 -17 0 -22 4 -17 16 3 9 6 17 6 18 0 2 11 1 24 -1 13 -3 27 0 30 6 4
6 2 11 -5 11 -8 0 -8 4 -1 13 7 8 6 18 -5 32 -15 20 -15 20 -10 -2z"/>
<path d="M1900 1630 c0 -5 5 -10 10 -10 6 0 10 5 10 10 0 6 -4 10 -10 10 -5 0
-10 -4 -10 -10z"/>
<path d="M2070 1616 c0 -8 5 -18 10 -21 6 -3 10 1 10 9 0 8 -4 18 -10 21 -5 3
-10 -1 -10 -9z"/>
<path d="M2130 1606 c0 -8 4 -17 9 -20 5 -4 7 3 4 14 -6 23 -13 26 -13 6z"/>
<path d="M1921 1596 c-8 -9 -20 -15 -28 -12 -17 7 -16 -14 1 -36 18 -24 22
-23 36 11 15 38 10 60 -9 37z"/>
<path d="M2048 1536 c-3 -14 -2 -26 3 -26 14 0 20 20 11 36 -8 14 -10 12 -14
-10z"/>
<path d="M2092 1521 c0 -17 4 -31 9 -31 11 0 12 30 0 48 -5 9 -8 3 -9 -17z"/>
<path d="M2126 1483 c-11 -11 -6 -23 9 -23 8 0 15 4 15 9 0 13 -16 22 -24 14z"/>
<path d="M1920 1444 c0 -17 17 -36 24 -26 3 5 -1 15 -9 22 -8 7 -15 9 -15 4z"/>
<path d="M2000 1432 c0 -5 6 -15 14 -21 10 -9 16 -8 26 4 7 9 8 15 2 15 -6 0
-17 3 -26 6 -9 3 -16 2 -16 -4z"/>
<path d="M2117 1433 c-4 -3 -7 -11 -7 -17 0 -6 5 -5 12 2 6 6 9 14 7 17 -3 3
-9 2 -12 -2z"/>
<path d="M1890 1410 c0 -5 5 -10 10 -10 6 0 10 5 10 10 0 6 -4 10 -10 10 -5 0
-10 -4 -10 -10z"/>
<path d="M2070 1396 c0 -18 19 -31 28 -21 4 4 1 10 -6 12 -6 3 -10 9 -6 14 3
5 0 9 -5 9 -6 0 -11 -6 -11 -14z"/>
<path d="M2020 1340 c0 -5 7 -10 16 -10 8 0 12 5 9 10 -3 6 -10 10 -16 10 -5
0 -9 -4 -9 -10z"/>
<path d="M1910 1270 c0 -6 7 -10 15 -10 8 0 15 2 15 4 0 2 -7 6 -15 10 -8 3
-15 1 -15 -4z"/>
<path d="M2132 1118 c-8 -10 -10 -26 -6 -42 5 -23 3 -26 -19 -26 -13 0 -30 -7
-37 -15 -7 -8 -17 -12 -22 -9 -5 3 5 19 23 35 18 16 30 29 27 29 -4 0 -13 3
-22 6 -11 4 -16 0 -16 -14 0 -24 -27 -37 -45 -22 -11 9 -12 3 -8 -30 5 -38 4
-40 -21 -40 -15 0 -25 -5 -23 -12 1 -8 -9 -14 -23 -14 -14 -1 -33 -5 -42 -9
-11 -4 -18 -3 -18 4 0 6 -7 8 -15 5 -24 -10 -17 -24 12 -24 24 0 25 -2 13 -14
-8 -8 -27 -17 -42 -20 -14 -2 -35 -9 -45 -14 -10 -5 -24 -7 -32 -4 -8 3 -12
-1 -9 -9 3 -9 16 -13 34 -11 23 3 27 1 17 -9 -24 -24 -15 -39 17 -33 22 5 31
2 36 -10 9 -23 23 -20 17 4 -3 11 0 20 6 20 6 0 11 9 11 20 0 11 5 20 11 20 6
0 8 9 4 20 -3 11 -2 20 3 20 20 0 21 -44 1 -71 -10 -15 -19 -30 -19 -33 0 -7
42 13 50 23 3 4 21 14 40 24 19 9 29 17 23 17 -7 0 -13 7 -13 15 0 10 11 15
35 15 19 0 35 3 35 8 0 4 9 13 21 20 16 10 24 10 35 1 33 -28 54 37 23 76 -4
6 -1 19 7 29 16 22 19 56 5 56 -5 0 -11 7 -13 17 -3 14 -4 15 -16 1z m9 -165
c13 -16 12 -17 -3 -4 -17 13 -22 21 -14 21 2 0 10 -8 17 -17z m-161 -18 c-7
-8 -17 -15 -22 -15 -6 0 -5 7 2 15 7 8 17 15 22 15 6 0 5 -7 -2 -15z m-124
-80 c-3 -9 -10 -13 -16 -10 -6 4 -5 11 3 20 15 16 22 11 13 -10z"/>
<path d="M2186 1101 c-4 -7 -5 -15 -2 -18 9 -9 19 4 14 18 -4 11 -6 11 -12 0z"/>
<path d="M1895 1030 c-3 -5 -1 -10 4 -10 6 0 11 5 11 10 0 6 -2 10 -4 10 -3 0
-8 -4 -11 -10z"/>
<path d="M2196 1021 c-3 -4 4 -7 14 -8 11 -1 22 2 24 6 3 4 -4 7 -14 8 -11 1
-22 -2 -24 -6z"/>
<path d="M2170 991 c0 -6 4 -13 10 -16 6 -3 7 1 4 9 -7 18 -14 21 -14 7z"/>
<path d="M2240 996 c0 -2 9 -6 20 -9 11 -3 20 -1 20 4 0 5 -9 9 -20 9 -11 0
-20 -2 -20 -4z"/>
<path d="M1473 973 c9 -9 19 -14 23 -11 10 10 -6 28 -24 28 -15 0 -15 -1 1
-17z"/>
<path d="M1695 970 c3 -5 8 -10 11 -10 2 0 4 5 4 10 0 6 -5 10 -11 10 -5 0 -7
-4 -4 -10z"/>
<path d="M2076 908 c-18 -25 -16 -31 8 -22 9 3 16 15 16 25 0 25 -5 24 -24 -3z"/>
<path d="M1140 910 c0 -21 16 -44 23 -33 4 6 0 19 -8 29 -11 15 -14 16 -15 4z"/>
<path d="M1785 910 c-3 -5 -1 -10 4 -10 6 0 11 5 11 10 0 6 -2 10 -4 10 -3 0
-8 -4 -11 -10z"/>
<path d="M2035 830 c-3 -5 -2 -10 4 -10 5 0 13 5 16 10 3 6 2 10 -4 10 -5 0
-13 -4 -16 -10z"/>
<path d="M2270 819 c0 -5 5 -7 10 -4 6 3 10 8 10 11 0 2 -4 4 -10 4 -5 0 -10
-5 -10 -11z"/>
<path d="M1023 813 c-24 -9 -14 -40 17 -53 17 -7 33 -10 37 -6 3 3 -1 6 -9 6
-18 0 -32 27 -16 32 6 2 5 8 -3 15 -8 5 -20 8 -26 6z"/>
<path d="M1730 810 c-9 -6 -10 -10 -3 -10 6 0 15 5 18 10 8 12 4 12 -15 0z"/>
<path d="M1170 735 c0 -8 2 -15 4 -15 2 0 6 7 10 15 3 8 1 15 -4 15 -6 0 -10
-7 -10 -15z"/>
<path d="M1030 726 c0 -9 30 -14 35 -6 4 6 -3 10 -14 10 -12 0 -21 -2 -21 -4z"/>
<path d="M1280 711 c0 -6 4 -13 10 -16 6 -3 7 1 4 9 -7 18 -14 21 -14 7z"/>
<path d="M1890 655 c0 -9 5 -15 11 -13 6 2 11 8 11 13 0 5 -5 11 -11 13 -6 2
-11 -4 -11 -13z"/>
<path d="M1838 643 c7 -3 16 -2 19 1 4 3 -2 6 -13 5 -11 0 -14 -3 -6 -6z"/>
<path d="M1535 550 c-3 -5 -1 -10 4 -10 6 0 11 5 11 10 0 6 -2 10 -4 10 -3 0
-8 -4 -11 -10z"/>
<path d="M1401 490 c6 -16 13 -30 16 -30 3 0 3 7 -1 15 -3 8 0 15 6 15 7 0 6
5 -2 15 -20 25 -30 17 -19 -15z"/>
<path d="M1580 511 c0 -10 30 -24 37 -17 3 2 -5 9 -16 16 -12 6 -21 7 -21 1z"/>
<path d="M1170 471 c0 -6 5 -13 10 -16 6 -3 10 1 10 9 0 9 -4 16 -10 16 -5 0
-10 -4 -10 -9z"/>
<path d="M1540 470 c0 -5 5 -10 11 -10 5 0 7 5 4 10 -3 6 -8 10 -11 10 -2 0
-4 -4 -4 -10z"/>
<path d="M1257 463 c-4 -3 -7 -15 -7 -25 0 -17 2 -18 15 -4 8 8 15 19 15 25 0
12 -13 15 -23 4z"/>
<path d="M1354 445 c-15 -11 -16 -15 -4 -15 8 -1 27 -3 42 -4 28 -2 28 8 -1
24 -13 6 -24 5 -37 -5z"/>
<path d="M1390 406 c0 -19 -11 -21 -28 -4 -9 9 -12 9 -12 0 0 -6 8 -16 18 -21
14 -7 21 -5 30 9 7 12 8 21 2 25 -6 3 -10 -1 -10 -9z"/>
<path d="M1165 400 c3 -5 11 -10 16 -10 6 0 7 5 4 10 -3 6 -11 10 -16 10 -6 0
-7 -4 -4 -10z"/>
<path d="M1140 229 c0 -18 2 -19 15 -9 11 9 15 9 15 1 0 -7 4 -10 10 -6 15 9
0 35 -21 35 -13 0 -19 -7 -19 -21z"/>
<path d="M1460 178 c-19 -21 -26 -38 -15 -38 15 0 55 34 55 46 0 20 -16 17
-40 -8z"/>
<path d="M1381 121 c-9 -6 -1 -9 25 -9 30 0 34 2 19 9 -26 10 -28 10 -44 0z"/>
<path d="M2480 536 c0 -9 30 -14 35 -6 4 6 -3 10 -14 10 -12 0 -21 -2 -21 -4z"/>
<path d="M2434 499 c-19 -22 -19 -22 4 -8 12 8 22 17 22 21 0 12 -6 9 -26 -13z"/>
<path d="M2460 480 c0 -5 4 -10 9 -10 6 0 13 5 16 10 3 6 -1 10 -9 10 -9 0
-16 -4 -16 -10z"/>
<path d="M1654 349 c-3 -5 2 -9 10 -9 10 0 13 -6 9 -16 -5 -14 -3 -14 16 -3
11 8 21 17 21 20 0 11 -50 17 -56 8z"/>
<path d="M2690 2720 c0 -5 5 -10 10 -10 6 0 10 5 10 10 0 6 -4 10 -10 10 -5 0
-10 -4 -10 -10z"/>
<path d="M2770 2723 c0 -18 38 -59 46 -50 4 4 -4 20 -19 35 -15 14 -27 22 -27
15z"/>
<path d="M2742 2700 c0 -14 2 -19 5 -12 2 6 2 18 0 25 -3 6 -5 1 -5 -13z"/>
</g>
</svg>
